C:\GBW_MyPrograms\PredSim_2D_BCN\PredSimResults\BCN_CP2\BCN_CP2_job23.mot
version=1
nRows=18
nColumns=29
inDegrees=yes
endheader
                time	         pelvis_tilt	           pelvis_tx	           pelvis_ty	       hip_flexion_l	       hip_flexion_r	        knee_angle_l	        knee_angle_r	       ankle_angle_l	       ankle_angle_r	    lumbar_extension	hamstrings_r/activation	bifemsh_r/activation	glut_max_r/activation	iliopsoas_r/activation	rect_fem_r/activation	  vasti_r/activation	gastroc_r/activation	 soleus_r/activation	tib_ant_r/activation	hamstrings_l/activation	bifemsh_l/activation	glut_max_l/activation	iliopsoas_l/activation	rect_fem_l/activation	  vasti_l/activation	gastroc_l/activation	 soleus_l/activation	tib_ant_l/activation	
          0.60544145	         -7.61161639	          0.60951486	          0.89683884	         33.49913366	         -8.44254921	        -13.37139488	         -9.27839217	          8.69613026	          8.32021153	          0.15865248	          0.05000044	          0.14183535	          0.05000063	          0.38093857	          0.06207910	          0.05000112	          0.30617823	          0.32572407	          0.05000008	          0.12743963	          0.06016562	          0.05000046	          0.08400088	          0.07152706	          0.05000019	          0.05419837	          0.05000228	          0.19176969	
          0.61755028	         -7.67147867	          0.62503112	          0.89616253	         32.70341524	         -8.49356995	        -12.41518925	        -10.81663331	          8.55432899	          7.53747972	          0.55485167	          0.05000042	          0.11801784	          0.05530845	          0.37881818	          0.07220992	          0.05000199	          0.28104296	          0.30729013	          0.05000006	          0.12674157	          0.05007580	          0.05000110	          0.06989521	          0.05951917	          0.05000019	          0.05612849	          0.05000218	          0.19683914	
          0.62965911	         -7.72017833	          0.64102137	          0.89547868	         31.78080705	         -8.36533052	        -11.77381379	        -12.72422598	          8.34669028	          6.62989666	          0.99687232	          0.05000033	          0.09819986	          0.06471514	          0.36139608	          0.06008583	          0.05000575	          0.24892624	          0.28762144	          0.05000005	          0.11408391	          0.05000161	          0.05576023	          0.05815822	          0.05000745	          0.05396954	          0.05600891	          0.05000497	          0.21369057	
          0.64176794	         -7.75642552	          0.65740143	          0.89477278	         30.79605856	         -8.03728653	        -11.67799887	        -15.01903256	          8.04496806	          5.54629676	          1.47389441	          0.05000073	          0.08170983	          0.10379273	          0.31515118	          0.05000091	          0.05000033	          0.20712556	          0.24606421	          0.05000005	          0.10138222	          0.05001685	          0.05000055	          0.05000043	          0.05000049	          0.05328385	          0.05948312	          0.05234501	          0.20016395	
          0.65387677	         -7.78345222	          0.67389147	          0.89423875	         29.84205228	         -7.49032221	        -11.83728009	        -17.66160723	          7.67853329	          4.15835317	          1.95474648	          0.05000119	          0.06798889	          0.08679571	          0.28646051	          0.05000060	          0.05867249	          0.17234415	          0.20474406	          0.05000004	          0.08435838	          0.06010861	          0.11775400	          0.05000020	          0.05000030	          0.09736413	          0.05000903	          0.05000038	          0.24576916	
          0.66598560	         -7.80674938	          0.69011944	          0.89422989	         29.01818362	         -6.68131357	        -12.17367258	        -20.61855716	          7.27099232	          2.27684902	          2.39901548	          0.05000059	          0.05657216	          0.07222068	          0.26118834	          0.05000097	          0.05000079	          0.14340338	          0.17036256	          0.05000006	          0.07019341	          0.05001570	          0.14986019	          0.05000019	          0.05000047	          0.17159784	          0.05000099	          0.05000043	          0.26552246	
          0.67809443	         -7.82872876	          0.70587903	          0.89487209	         28.26921056	         -5.58419299	        -12.59242965	        -23.89302400	          6.97509485	         -0.02920374	          2.78471005	          0.05000057	          0.05000078	          0.06009310	          0.22671973	          0.05000107	          0.05000015	          0.11932247	          0.14175454	          0.22164232	          0.07095350	          0.05000280	          0.16403637	          0.05000019	          0.05000039	          0.23034016	          0.05000040	          0.05000046	          0.28180330	
          0.69020326	         -7.85031337	          0.72104561	          0.89590449	         27.50497861	         -4.31495087	        -12.92620665	        -27.27793801	          6.78837159	         -1.67599906	          3.09837986	          0.05000093	          0.07282979	          0.05000207	          0.20779880	          0.05000060	          0.05000005	          0.09928535	          0.11795051	          0.20676958	          0.06010833	          0.05000143	          0.16445104	          0.05000018	          0.05000055	          0.25930911	          0.05000030	          0.05000025	          0.29213562	
          0.70231209	         -7.87226781	          0.73561597	          0.89722256	         26.68743665	         -3.00378900	        -13.10987728	        -30.40318641	          6.69676133	         -1.88359530	          3.34158583	          0.05000193	          0.10847988	          0.05000010	          0.18768582	          0.05000049	          0.05000004	          0.08261301	          0.09814378	          0.24357705	          0.06044651	          0.05000219	          0.14371053	          0.05000022	          0.05000060	          0.26062168	          0.05000036	          0.05000036	          0.28860419	
          0.71442092	         -7.89364294	          0.74966140	          0.89885191	         25.82159779	         -1.67430168	        -13.16258352	        -33.19281978	          6.69439084	         -1.52256695	          3.52325698	          0.05594919	          0.13865949	          0.05000012	          0.17342242	          0.08339836	          0.05000004	          0.06874082	          0.08166307	          0.23595525	          0.06199214	          0.05000191	          0.13059839	          0.05000021	          0.05000061	          0.24931048	          0.05000040	          0.05000044	          0.27875757	
          0.72652975	         -7.91315523	          0.76326401	          0.90073579	         24.91850810	         -0.34647092	        -13.11153114	        -35.60749926	          6.75378247	         -0.97024801	          3.65283490	          0.06981672	          0.17748669	          0.05000011	          0.16269394	          0.13039021	          0.05000004	          0.06563619	          0.06794988	          0.21979614	          0.06455072	          0.05000181	          0.12280862	          0.05000020	          0.05000062	          0.23265672	          0.05000043	          0.05000055	          0.26498096	
          0.73863857	         -7.92940329	          0.77649874	          0.90277952	         23.98266644	          0.97009139	        -12.97194624	        -37.64566243	          6.84534190	         -0.30654581	          3.73828469	          0.07586623	          0.21813205	          0.05000011	          0.15460464	          0.16585154	          0.05000005	          0.06176544	          0.05653948	          0.20235327	          0.06708250	          0.05000165	          0.11897631	          0.05000019	          0.05000063	          0.21451952	          0.05000041	          0.05000053	          0.25142728	
          0.75074740	         -7.94112747	          0.78942177	          0.90488311	         23.01904336	          2.27956176	        -12.75869654	        -39.33762496	          6.94805647	          0.39820285	          3.78509174	          0.07225419	          0.26238726	          0.05000012	          0.14748909	          0.19109864	          0.05000006	          0.05636838	          0.05000013	          0.18819368	          0.06948666	          0.05000154	          0.11742392	          0.05000018	          0.05000062	          0.19752632	          0.05000037	          0.05000053	          0.23868597	
          0.76285623	         -7.94731786	          0.80207312	          0.90695681	         22.03346640	          3.59305774	        -12.48768090	        -40.72834903	          7.05779845	          1.07801972	          3.79684152	          0.06012926	          0.31013474	          0.05000012	          0.14049242	          0.20619023	          0.05000007	          0.05000094	          0.05000014	          0.18213457	          0.07129173	          0.05000143	          0.11763468	          0.05000017	          0.05000061	          0.18359158	          0.05000043	          0.05000098	          0.22456198	
          0.77496506	         -7.94716460	          0.81448095	          0.90893158	         21.02852656	          4.92354339	        -12.16751433	        -41.86611824	          7.17355417	          1.70232177	          3.77581808	          0.05003469	          0.35760440	          0.05000013	          0.13393274	          0.21350584	          0.05000008	          0.05000066	          0.05000012	          0.18146729	          0.07161078	          0.05000134	          0.11676779	          0.05000017	          0.05000061	          0.17262486	          0.05000050	          0.05229763	          0.21028660	
          0.78707389	         -7.93971465	          0.82666097	          0.91076051	         20.00462046	          6.28678043	        -11.80033682	        -42.81075411	          7.28274305	          2.28519262	          3.72254405	          0.05000125	          0.40054042	          0.05000013	          0.12889709	          0.21539469	          0.05000009	          0.05000062	          0.05000013	          0.18236311	          0.06946613	          0.05000124	          0.11143104	          0.05000017	          0.05000073	          0.16381853	          0.05225093	          0.05729514	          0.19756351	
          0.79918272	         -7.92418801	          0.83861771	          0.91241449	         18.96477024	          7.70103494	        -11.39123422	        -43.63371909	          7.37250559	          2.84943820	          3.63634632	          0.05000073	          0.43582787	          0.05000012	          0.12418421	          0.21306723	          0.05000010	          0.05000059	          0.05000013	          0.18415319	          0.06610119	          0.05000117	          0.10538526	          0.05000017	          0.05000089	          0.15666886	          0.06162233	          0.06279888	          0.18723388	
          0.81129155	         -7.90016692	          0.85035406	          0.91388125	         17.91302984	          9.17975407	        -10.94785417	        -44.39510769	          7.44198569	          3.40458295	          3.51681037	          0.05000046	          0.46289343	          0.05000011	          0.12013113	          0.20822501	          0.05000010	          0.05000057	          0.05000013	          0.18623719	          0.06168641	          0.05000111	          0.09854198	          0.05000018	          0.05000119	          0.15080342	          0.07203404	          0.06927784	          0.17756085	
